<?xml version="1.0" encoding="utf-8"?><svg xmlns="http://www.w3.org/2000/svg" xmlns:xlink="http://www.w3.org/1999/xlink" width="1024" height="657" preserveAspectRatio="xMidYMid" viewBox="0 0 1024 657" style="z-index:1;margin-right:-2px;display:block;background-repeat-y:initial;background-repeat-x:initial;background-color:rgb(255, 255, 255);animation-play-state:paused" ><g transform="translate(512,328.5) scale(1,1) translate(-512,-328.5)" style="transform:matrix(1, 0, 0, 1, 0, 0);animation-play-state:paused" ><linearGradient id="lg-0.7960168150122939" x1="0" x2="1" y1="0" y2="0" style="animation-play-state:paused" ><stop stop-color="#ff00ff" offset="0" style="animation-play-state:paused" ></stop>

  
<stop stop-color="#00ffff" offset="1" style="animation-play-state:paused" ></stop></linearGradient>
<path d="M 0 0 L 0 578.92 Q 102.4 534.814 204.8 508.539 T 409.6 426.052 T 614.4 441.9 T 819.2 388.669 T 1024 233.708 L 1024 0 Z" fill="url(#lg-0.7960168150122939)" opacity="0.4" style="opacity:0.4;animation-play-state:paused" ></path>
<path d="M 0 0 L 0 574.329 Q 102.4 572.313 204.8 547.175 T 409.6 519.426 T 614.4 423.599 T 819.2 336.36 T 1024 277 L 1024 0 Z" fill="url(#lg-0.7960168150122939)" opacity="0.4" style="opacity:0.4;animation-play-state:paused" ></path>
<path d="M 0 0 L 0 573.977 Q 102.4 595.589 204.8 574.77 T 409.6 498.225 T 614.4 389.974 T 819.2 318.403 T 1024 324.145 L 1024 0 Z" fill="url(#lg-0.7960168150122939)" opacity="0.4" style="opacity:0.4;animation-play-state:paused" ></path>
<path d="M 0 0 L 0 625.092 Q 102.4 556.928 204.8 530.17 T 409.6 492.247 T 614.4 392.825 T 819.2 371.436 T 1024 282.586 L 1024 0 Z" fill="url(#lg-0.7960168150122939)" opacity="0.4" style="opacity:0.4;animation-play-state:paused" ></path>
<path d="M 0 0 L 0 614.449 Q 102.4 586.872 204.8 555.655 T 409.6 466.163 T 614.4 376.074 T 819.2 343.677 T 1024 295.288 L 1024 0 Z" fill="url(#lg-0.7960168150122939)" opacity="0.4" style="opacity:0.4;animation-play-state:paused" ></path></g></svg>